<?xml version="1.0" encoding="utf-8"?>
<!-- Generator: Adobe Illustrator 22.1.0, SVG Export Plug-In . SVG Version: 6.00 Build 0)  -->
<svg version="1.1" id="Layer_1" xmlns="http://www.w3.org/2000/svg" xmlns:xlink="http://www.w3.org/1999/xlink" x="0px" y="0px"
	 viewBox="0 0 259.5 52.1" style="enable-background:new 0 0 259.5 52.1;" xml:space="preserve">
<style type="text/css">
	.st0{fill:#205C26;}
</style>
<title>image</title>
<g>
	<path class="st0" d="M22.2,0l-3.1,6.1h-5.7v20.3H7.1V6.1H0V0H22.2z"/>
	<path class="st0" d="M37.6,26.4H27l-2.3-4.6l-2.5,4.6h-6.6L29.9,0h7.7V26.4z M31,20.4V10.1l-5.5,10.3H31z"/>
	<path class="st0" d="M73.3,26.4h-6.6V6.6l-6.6,19.8h-6.6L46.9,6.6v19.8h-6.6V0h10.9l5.6,16.5L62.3,0h11V26.4z"/>
	<path class="st0" d="M97.2,26.4H86.5l-2.3-4.6l-2.5,4.6h-6.6L89.4,0h7.8L97.2,26.4z M90.6,20.4V10.1L85,20.4H90.6z"/>
	<path class="st0" d="M121.7,26.4h-6.6v-2.5l-8.7-13.6v16h-6.6V0h7.5l7.8,12.5V0.1h6.6L121.7,26.4z"/>
	<path class="st0" d="M146.3,13.3c0,1.5-0.2,3-0.6,4.4c-0.3,1.3-0.9,2.6-1.6,3.8c-0.6,1.1-1.5,2-2.5,2.8c-0.9,0.8-2,1.3-3.1,1.6
		l-2.9,0.5h-11.3V0h10.3c1.7,0,3.3,0.3,4.8,1c1.4,0.7,2.6,1.6,3.7,2.7c1.1,1.3,1.8,2.7,2.3,4.3C146,9.7,146.3,11.5,146.3,13.3z
		 M139.8,11.7v-0.5c-0.1-0.4-0.2-0.8-0.3-1.2c-0.1-0.5-0.3-1-0.6-1.4c-0.2-0.6-0.6-1-1.1-1.4c-0.5-0.6-1.2-0.9-2-1h-4.9v14h4.1
		C138.2,20.2,139.8,17.4,139.8,11.7z"/>
	<path class="st0" d="M170.2,0v26.4h-11.3c-1.1,0-2.2-0.2-3.2-0.5c-1-0.4-1.9-0.9-2.7-1.5c-0.9-0.7-1.6-1.5-2.3-2.4
		c-0.7-0.9-1.2-1.9-1.6-3c-0.3-0.7-0.5-1.5-0.6-2.3V0h6.2v13.3c0,0.9,0.1,1.9,0.3,2.8c0.2,0.8,0.6,1.5,1,2.2
		c0.4,0.6,0.9,1.1,1.5,1.4c0.6,0.3,1.3,0.5,2,0.5h4.1V0H170.2z"/>
	<path class="st0" d="M195,0l-3,6.1h-5.8v20.3h-6.3V6.1h-7V0H195z"/>
	<path class="st0" d="M215.9,0l-3,6.2h-10.1V10h10.1v6.2h-10.1v4h11.7v6.2h-18.2V0H215.9z"/>
	<path class="st0" d="M237.5,0l-3,6.2h-8.4c-0.4,0-0.7,0.1-1,0.3L224,7.2c-0.3,0.3-0.6,0.6-0.8,1c-0.3,0.3-0.5,0.6-0.6,1
		c-0.2,0.8-0.4,1.7-0.5,2.5c0,5.7,1.6,8.5,4.8,8.5h10.6v6.2h-12.3l-1.8-0.4c-0.9-0.2-1.8-0.6-2.6-1.2c-0.9-0.6-1.7-1.3-2.3-2.1
		c-0.7-0.8-1.3-1.8-1.7-2.8c-0.5-0.9-0.8-2-0.9-3c-0.2-1.2-0.3-2.3-0.3-3.5c0-1.8,0.3-3.6,0.8-5.4c0.6-1.5,1.4-2.9,2.4-4.2
		c1-1.2,2.3-2.1,3.7-2.7c1.5-0.7,3.1-1,4.8-1L237.5,0z"/>
	<path class="st0" d="M259.5,26.4h-6.2V12l-2.5,4.3h-6.1v10.1h-6V0h6.1v10.1h8.6V0h6.1V26.4z"/>
</g>
<g>
	<path d="M16,52.1h-5.2l-6.3-9.6v9.6H0V32.9h10.3c0.8,0,1.5,0.2,2.2,0.5c0.6,0.4,1.2,0.9,1.7,1.4c0.5,0.6,0.9,1.3,1.1,2
		c0.3,0.8,0.4,1.6,0.4,2.4c0,0.7,0,1.4-0.2,2.1c-0.1,0.6-0.3,1.1-0.6,1.6c-0.3,0.5-0.7,0.9-1.2,1.3c-0.5,0.4-1,0.7-1.6,0.9h-0.3
		L16,52.1z M11.4,39.4c0-0.5-0.2-1-0.5-1.4c-0.3-0.4-0.8-0.6-1.3-0.6H4.5v3.9h5.3c0.2,0,0.4,0,0.6-0.2l0.5-0.4
		c0.2-0.2,0.3-0.4,0.4-0.7C11.4,39.8,11.4,39.6,11.4,39.4z"/>
	<path d="M35.1,42.5c0,1.3-0.2,2.6-0.6,3.8c-0.4,1.1-1,2.2-1.8,3.1c-0.7,0.9-1.7,1.5-2.7,2c-1.1,0.5-2.3,0.7-3.5,0.7
		c-1.2,0-2.5-0.2-3.6-0.7c-1.1-0.4-2-1.1-2.7-2c-0.8-0.8-1.4-1.9-1.8-3c-0.5-1.2-0.7-2.6-0.7-3.9c0-1.3,0.3-2.6,0.7-3.9
		c0.4-1.1,1-2.1,1.8-3c0.8-0.8,1.8-1.5,2.8-2c1.1-0.5,2.4-0.7,3.6-0.7c1.2,0,2.4,0.2,3.5,0.7c1,0.5,1.9,1.2,2.6,2
		c0.8,0.9,1.4,2,1.8,3.1C34.9,39.9,35.1,41.2,35.1,42.5z M30.9,42.5c0-0.7-0.1-1.4-0.3-2.1c-0.3-0.6-0.6-1.1-0.9-1.6
		c-0.4-0.5-0.9-0.9-1.4-1.2c-0.6-0.3-1.2-0.4-1.8-0.4c-0.6,0-1.2,0.1-1.7,0.4c-0.5,0.3-1,0.6-1.4,1.1c-0.4,0.5-0.7,1.1-0.9,1.7
		c-0.2,0.7-0.3,1.5-0.3,2.2c0,0.7,0.1,1.4,0.3,2.1c0.2,0.6,0.5,1.2,0.9,1.7c0.4,0.4,0.9,0.8,1.4,1.1c0.5,0.2,1.1,0.4,1.7,0.4
		c0.6,0,1.2-0.2,1.7-0.4c0.6-0.3,1.1-0.7,1.4-1.2c0.4-0.5,0.7-1.1,0.9-1.7C30.8,43.9,30.9,43.2,30.9,42.5z"/>
	<path d="M53,46.9c0,0.7-0.2,1.5-0.4,2.2c-0.3,0.6-0.7,1.1-1.1,1.6c-0.5,0.5-1.1,0.8-1.7,1c-0.7,0.3-1.4,0.4-2.2,0.4H36.7V32.9h11.1
		l1.2,0.3h1.1c0.4,0.2,0.8,0.4,1.1,0.7l0.9,1l0.6,1.2c0.1,0.4,0.2,0.8,0.2,1.2c0,1-0.2,2-0.6,2.9c-0.3,0.8-1,1.5-1.8,1.9
		C52.1,43.1,53.1,45,53,46.9z M48.5,38.8c0-0.4-0.1-0.8-0.4-1.1c-0.2-0.3-0.6-0.5-1-0.5h-5.7v3h6.5l0.3-0.4c0.1-0.1,0.2-0.3,0.2-0.4
		C48.5,39.2,48.5,39,48.5,38.8z M48.5,46.2c0-0.2,0-0.3-0.1-0.5c-0.1-0.2-0.1-0.4-0.3-0.5c-0.1-0.2-0.2-0.3-0.4-0.4h-4.1l-2.2-3.4
		v6.5h6.3l0.4-0.4c0.2-0.1,0.2-0.3,0.3-0.5C48.5,46.8,48.6,46.5,48.5,46.2z"/>
	<path d="M72.1,42.5c0,1.3-0.2,2.6-0.6,3.8c-0.4,1.1-1,2.2-1.7,3.1c-0.8,0.8-1.7,1.5-2.7,2c-1.1,0.5-2.4,0.7-3.6,0.7
		c-1.2,0-2.4-0.2-3.5-0.7c-1.1-0.5-2-1.1-2.8-2c-0.8-0.9-1.4-1.9-1.8-3c-0.8-2.5-0.8-5.3,0-7.8c0.5-1.1,1.1-2.1,1.9-3
		c0.8-0.8,1.7-1.5,2.7-2c1.1-0.5,2.4-0.7,3.6-0.7c1.2,0,2.4,0.2,3.5,0.7c1,0.5,2,1.1,2.7,2c0.7,0.9,1.3,2,1.7,3.1
		C71.9,39.9,72.1,41.2,72.1,42.5z M67.9,42.5c0-0.7-0.1-1.4-0.3-2.1c-0.2-0.6-0.5-1.1-0.9-1.6c-0.4-0.5-0.8-0.9-1.3-1.2
		c-0.6-0.3-1.2-0.4-1.8-0.4c-0.6,0-1.2,0.1-1.8,0.4c-0.5,0.3-1,0.7-1.4,1.1c-0.3,0.5-0.6,1.1-0.8,1.7c-0.2,0.7-0.3,1.5-0.3,2.2
		c0,0.7,0.1,1.4,0.3,2.1c0.2,0.6,0.5,1.2,0.9,1.7c0.7,1,1.8,1.5,3,1.5c0.6,0,1.2-0.2,1.8-0.4c0.5-0.3,1-0.7,1.4-1.2
		c0.4-0.5,0.7-1.1,0.9-1.7C67.8,43.9,67.9,43.2,67.9,42.5z"/>
	<path d="M88.7,32.9l-2.2,4.4h-4.2v14.8h-4.6V37.3h-5.1v-4.4H88.7z"/>
	<path d="M117.6,42.6c0,1.1-0.2,2.2-0.5,3.2c-0.2,1-0.6,1.9-1.1,2.7c-0.5,0.8-1.1,1.5-1.8,2.1c-0.7,0.5-1.5,0.9-2.3,1.1l-2.1,0.4
		h-8.2V32.9h7.5c1.2,0,2.3,0.2,3.4,0.7c1,0.5,2,1.1,2.7,2c0.8,0.9,1.4,2,1.7,3.1C117.3,40,117.6,41.3,117.6,42.6z M112.8,41.4V41
		c0-0.3-0.1-0.5-0.2-0.8c-0.1-0.3-0.2-0.7-0.4-1c-0.2-0.4-0.5-0.7-0.8-1c-0.4-0.5-0.9-0.7-1.5-0.8h-3.5v10.2h2.9
		C111.7,47.6,112.8,45.5,112.8,41.4z"/>
	<path d="M132,52.1h-7.8l-1.6-3.4l-1.8,3.4H116l10.3-19.2h5.7V52.1z M127.2,47.7v-7.5l-4.1,7.5L127.2,47.7z"/>
	<path d="M149.7,46.1c0,0.9-0.1,1.7-0.4,2.5c-0.2,0.7-0.6,1.4-1.1,1.9c-0.5,0.5-1,0.9-1.7,1.2c-0.7,0.3-1.5,0.4-2.3,0.4h-10.3v-4.3
		h9.6c0.5,0,0.9-0.1,1.3-0.4c0.4-0.2,0.5-0.7,0.5-1.1c0-0.4-0.1-0.7-0.4-1c-0.4-0.2-0.9-0.4-1.4-0.5h-3.1l-2.2-0.2l-1.6-0.4
		l-1.1-0.8l-0.8-1.2c-0.5-1.1-0.8-2.2-0.8-3.4c0-0.9,0.1-1.7,0.4-2.5c0.2-0.7,0.6-1.4,1.1-1.9c0.5-0.5,1-0.9,1.7-1.2
		c0.7-0.3,1.4-0.4,2.2-0.4h10.4l-2.1,4.5h-7.8c-0.8-0.1-1.5,0.3-1.6,1.1c-0.1,0.5,0.1,1.1,0.5,1.4c0.3,0.3,0.7,0.4,1.1,0.4h4.4
		C147.9,40.3,149.7,42.3,149.7,46.1z"/>
	<path d="M166.4,52.1h-4.5V41.7l-1.9,3h-4.4v7.4h-4.4V32.9h4.4v7.4h6.3v-7.4h4.5L166.4,52.1z"/>
</g>
</svg>
